<?xml version="1.0" encoding="utf-8"?>
<!-- Generator: Adobe Illustrator 22.1.0, SVG Export Plug-In . SVG Version: 6.00 Build 0)  -->
<svg version="1.1" xmlns="http://www.w3.org/2000/svg" xmlns:xlink="http://www.w3.org/1999/xlink" x="0px" y="0px"
	 viewBox="0 0 479.7 557" style="enable-background:new 0 0 479.7 557;" xml:space="preserve">
<style type="text/css">
	.st0{display:none;}
	.st1{fill:url(#SVGID_1_);}
	.st2{fill:url(#SVGID_2_);}
	.st3{fill:url(#SVGID_3_);}
</style>
<g id="Layer_1" class="st0">
	
		<image style="display:inline;overflow:visible;" width="2200" height="250" xlink:href="../../../Jacob/TSA/2018-2019/Webmaster/flying-bacon.png"  transform="matrix(1 0 0 1 -883.2752 85)">
	</image>
</g>
<g id="Layer_2">
	<g>
		
			<image style="overflow:visible;opacity:0.75;" width="2224" height="2584" xlink:href="4C1CA007.png"  transform="matrix(0.24 0 0 0.24 -40.1552 -40.08)">
		</image>
		<g>
			<g>
				
					<linearGradient id="SVGID_1_" gradientUnits="userSpaceOnUse" x1="-43.2752" y1="3.346750e-06" x2="-42.2752" y2="3.346750e-06" gradientTransform="matrix(3.6063 -112.7634 -112.7634 -3.6063 540.7826 -4638.3716)">
					<stop  offset="0" style="stop-color:#800069"/>
					<stop  offset="1" style="stop-color:#F30A87"/>
				</linearGradient>
				<polygon class="st1" points="406.3,255 413.4,26.8 385.4,0 363.1,230.3 				"/>
				
					<linearGradient id="SVGID_2_" gradientUnits="userSpaceOnUse" x1="-43.2752" y1="-7.192748e-07" x2="-42.2752" y2="-7.192748e-07" gradientTransform="matrix(195.3699 -116.1248 -116.1248 -195.3699 8487.3906 -4551.2021)">
					<stop  offset="0" style="stop-color:#800069"/>
					<stop  offset="1" style="stop-color:#F30A87"/>
				</linearGradient>
				<path class="st2" d="M406.3,255c0,0,0,17.8-24.9,37.5c-24.9,19.7-49.8,3.8-84.7,27.4c-34.9,23.5-29.9,46.4-55.4,65.5
					c-25.5,19.1-49.2-1.3-81.5,24.8c-32.4,26.1-33,52.8-59.8,68.7c-26.8,15.9-54.2,3.2-71.6,21L0,469.5c17.4-17.8,35-11.2,61.7-27.1
					c26.8-15.9,37.3-36.5,69.7-62.6c32.4-26.1,56-5.7,81.6-24.8c25.5-19.1,20.5-42,55.4-65.5s59.8-7.6,84.7-27.4
					c24.9-19.7,24.9-37.5,24.9-37.5L406.3,255z"/>
				
					<linearGradient id="SVGID_3_" gradientUnits="userSpaceOnUse" x1="-43.2752" y1="1.012640e-07" x2="-42.2752" y2="1.012640e-07" gradientTransform="matrix(-323.1007 -127.8018 -127.8018 323.1007 -13629.7783 -5232.4023)">
					<stop  offset="0" style="stop-color:#800069"/>
					<stop  offset="1" style="stop-color:#F30A87"/>
				</linearGradient>
				<path class="st3" d="M385.4,0L378,230.4c0,0,0,17.4-24.9,36.7c-24.9,19.3-49.8,3.7-84.7,26.8c-34.9,23-29.9,45.5-55.4,64.1
					s-49.2-1.2-81.6,24.3c-32.4,25.5-33,51.7-59.8,67.2c-26.8,15.6-54.2,3.1-71.6,20.5V244.7c28.6-22.4,54.8-8.1,80.3-24.3
					s18.1-36.7,50.4-62.9c32.4-26.2,61-12.5,87.8-26.8c26.8-14.3,25.5-44.2,58.5-65.4c33-21.2,53.5-10,77.2-23.7
					C378,28,385.4,0,385.4,0z"/>
			</g>
		</g>
	</g>
</g>
</svg>
