<svg enable-background="new 0 0 479.7 557" viewBox="0 0 479.7 557" xmlns="http://www.w3.org/2000/svg" xmlns:xlink="http://www.w3.org/1999/xlink"><linearGradient id="a"><stop offset="0" stop-color="#800069"/><stop offset="1" stop-color="#f30a87"/></linearGradient><linearGradient id="b" gradientTransform="matrix(3.6063 -112.7634 -112.7634 -3.6063 540.7826 -4638.3716)" gradientUnits="userSpaceOnUse" x1="-43.2752" x2="-42.2752" xlink:href="#a" y1=".000003" y2=".000003"/><linearGradient id="c" gradientTransform="matrix(195.3699 -116.1248 -116.1248 -195.3699 8487.3906 -4551.2021)" gradientUnits="userSpaceOnUse" x1="-43.2752" x2="-42.2752" xlink:href="#a" y1="-.000001" y2="-.000001"/><linearGradient id="d" gradientTransform="matrix(-323.1007 -127.8018 -127.8018 323.1007 -13629.7783 -5232.4023)" gradientUnits="userSpaceOnUse" x1="-43.2752" x2="-42.2752" xlink:href="#a" y1="0" y2="0"/><image height="2584" opacity=".75" overflow="visible" transform="matrix(.24 0 0 .24 -40.1552 -40.08)" width="2224" xlink:href="4C1CA007.png"/><path d="m406.3 255 7.1-228.2-28-26.8-22.3 230.3z" fill="url(#b)"/><path d="m406.3 255s0 17.8-24.9 37.5-49.8 3.8-84.7 27.4c-34.9 23.5-29.9 46.4-55.4 65.5s-49.2-1.3-81.5 24.8c-32.4 26.1-33 52.8-59.8 68.7s-54.2 3.2-71.6 21l-28.4-30.4c17.4-17.8 35-11.2 61.7-27.1 26.8-15.9 37.3-36.5 69.7-62.6s56-5.7 81.6-24.8c25.5-19.1 20.5-42 55.4-65.5s59.8-7.6 84.7-27.4c24.9-19.7 24.9-37.5 24.9-37.5z" fill="url(#c)"/><path d="m385.4 0-7.4 230.4s0 17.4-24.9 36.7-49.8 3.7-84.7 26.8c-34.9 23-29.9 45.5-55.4 64.1s-49.2-1.2-81.6 24.3-33 51.7-59.8 67.2c-26.8 15.6-54.2 3.1-71.6 20.5v-225.3c28.6-22.4 54.8-8.1 80.3-24.3s18.1-36.7 50.4-62.9c32.4-26.2 61-12.5 87.8-26.8s25.5-44.2 58.5-65.4 53.5-10 77.2-23.7c23.8-13.6 31.2-41.6 31.2-41.6z" fill="url(#d)"/></svg>